<?xml version="1.0" encoding="UTF-8"?>
<svg width="40px" height="40px" viewBox="0 0 40 40" version="1.1" xmlns="http://www.w3.org/2000/svg" xmlns:xlink="http://www.w3.org/1999/xlink">
    <title>Instagram</title>
    <g id="Instagram" stroke="none" stroke-width="1" fill="none" fill-rule="evenodd">
        <g id="kerInsta" transform="translate(-1256.000000, -116.000000)" fill="#000000" fill-rule="nonzero">
            <g id="Icons" transform="translate(1064.000000, 116.000000)">
                <path d="M220.952637,13.2269288 C220.768616,12.7282715 220.475037,12.2769165 220.093567,11.9064331 C219.723084,11.5249634 219.272034,11.2313843 218.773071,11.0473633 C218.368408,10.8901977 217.760498,10.703125 216.640808,10.6521606 C215.429565,10.5969238 215.066406,10.585022 212,10.585022 C208.933289,10.585022 208.570129,10.5966187 207.359192,10.6518555 C206.239502,10.703125 205.631287,10.8901977 205.226929,11.0473633 C204.727966,11.2313843 204.276611,11.5249634 203.906433,11.9064331 C203.524963,12.2769165 203.231384,12.7279663 203.047058,13.2269288 C202.889893,13.6315918 202.70282,14.2398071 202.651855,15.359497 C202.596619,16.5704345 202.584717,16.9335938 202.584717,20.0003052 C202.584717,23.0667114 202.596619,23.4298706 202.651855,24.6411133 C202.70282,25.7608032 202.889893,26.3687134 203.047058,26.7733765 C203.231384,27.2723389 203.524658,27.7233887 203.906128,28.093872 C204.276611,28.4753418 204.727661,28.7689209 205.226624,28.9529419 C205.631287,29.1104126 206.239502,29.2974853 207.359192,29.3484497 C208.570129,29.4036866 208.932983,29.4152832 211.999695,29.4152832 C215.066711,29.4152832 215.429871,29.4036866 216.640503,29.3484497 C217.760193,29.2974853 218.368408,29.1104126 218.773071,28.9529419 C219.774658,28.5665894 220.566284,27.7749634 220.952637,26.7733765 C221.109802,26.3687134 221.296875,25.7608032 221.348145,24.6411133 C221.403381,23.4298706 221.414978,23.0667114 221.414978,20.0003052 C221.414978,16.9335938 221.403381,16.5704345 221.348145,15.359497 C221.29718,14.2398071 221.110107,13.6315918 220.952637,13.2269288 L220.952637,13.2269288 Z M212,25.8972168 C208.742859,25.8972168 206.102478,23.2571411 206.102478,20 C206.102478,16.7428589 208.742859,14.1027832 212,14.1027832 C215.256836,14.1027832 217.897217,16.7428589 217.897217,20 C217.897217,23.2571411 215.256836,25.8972168 212,25.8972168 Z M212,0 C223.044006,0 232,8.95599367 232,20 C232,31.0440063 223.044006,40 212,40 C200.955994,40 192,31.0440063 192,20 C192,8.95599367 200.955994,0 212,0 Z M212.607537,8.51582621 L211.392463,8.51582611 C211.297304,8.51589473 211.205097,8.51598169 211.115695,8.51608819 L210.611778,8.51697107 C209.351539,8.52000118 208.734703,8.52864025 208.163203,8.54775728 L207.842574,8.5596478 C207.662723,8.56690325 207.476348,8.5752711 207.265198,8.58489992 C206.042664,8.64074703 205.208008,8.83483891 204.477417,9.11865234 C203.711121,9.40704344 203.016846,9.85900875 202.44342,10.4434204 C201.859009,11.0168457 201.406738,11.7111206 201.118347,12.477417 C200.834534,13.2080078 200.640442,14.0426636 200.5849,15.2651977 C200.575218,15.4763478 200.566816,15.6627228 200.55954,15.8425741 L200.547625,16.1632035 C200.528487,16.7347032 200.519936,17.351539 200.516949,18.6117777 L200.516079,19.1156948 C200.515975,19.205097 200.515889,19.2973044 200.515822,19.3924632 L200.515822,20.6075369 C200.51589,20.7026957 200.515975,20.7949032 200.51608,20.8843055 L200.51695,21.3882238 C200.519942,22.6484676 200.528514,23.2653244 200.547741,23.8369124 L200.559713,24.1575988 C200.567025,24.3374863 200.575471,24.5239047 200.585205,24.7351074 C200.640747,25.9573364 200.835144,26.7922973 201.118957,27.522583 C201.407349,28.2888794 201.859314,28.9831543 202.44342,29.5565796 C203.017151,30.1409913 203.711121,30.5929566 204.477722,30.8813477 C205.208008,31.1651611 206.042969,31.359253 207.265198,31.4151001 C207.4764,31.4247289 207.66281,31.4330967 207.842684,31.4403522 L208.163342,31.4522427 C208.734876,31.4713597 209.351662,31.4799988 210.611973,31.4830289 L211.115924,31.4839118 C211.205332,31.4840183 211.297547,31.4841053 211.392714,31.4841739 L212.607842,31.4841739 C212.703001,31.4841053 212.795208,31.4840183 212.88461,31.4839118 L213.388527,31.4830289 C214.727531,31.4798094 215.340193,31.470258 215.943873,31.4485343 L216.157731,31.4403522 C216.337582,31.4330967 216.523957,31.4247289 216.735107,31.4151001 C217.957336,31.359253 218.792297,31.1651611 219.522583,30.8813477 C221.065247,30.284729 222.284729,29.0652466 222.881348,27.522583 C223.165161,26.7919922 223.359558,25.9573364 223.4151,24.7348023 C223.424782,24.5236522 223.433184,24.3372772 223.44046,24.1574259 L223.452375,23.8367965 C223.471513,23.2652968 223.480064,22.648461 223.483051,21.3882223 L223.483921,20.8843052 C223.484025,20.794903 223.484111,20.7026956 223.484178,20.6075368 L223.484178,19.3924632 C223.484111,19.2973044 223.484025,19.205097 223.483921,19.1156948 L223.483053,18.6117777 C223.480071,17.351539 223.471541,16.7347032 223.452491,16.1632035 L223.440633,15.8425741 C223.433393,15.6627228 223.425034,15.4763478 223.415405,15.2651977 C223.359558,14.0426636 223.165466,13.2080078 222.881348,12.477417 C222.593262,11.7111206 222.140991,11.0171509 221.556885,10.4434204 C220.983154,9.85900875 220.288879,9.40673828 219.522583,9.11834719 C218.791992,8.83483891 217.957336,8.64074703 216.734802,8.58520508 C216.523652,8.57552364 216.337277,8.56711225 216.157426,8.55982077 L215.836797,8.54787315 C215.265297,8.52866784 214.648461,8.52000775 213.388222,8.51697263 L212.884305,8.51608853 C212.794903,8.51598192 212.702696,8.51589488 212.607537,8.51582621 Z M212,16.171875 C214.114258,16.171875 215.828125,17.8857422 215.828125,20 C215.828125,22.1142578 214.114258,23.828125 212,23.828125 C209.885742,23.828125 208.171875,22.1142578 208.171875,20 C208.171875,17.8857422 209.885742,16.171875 212,16.171875 Z M218.130371,12.4914551 C218.89148,12.4914551 219.508545,13.1085205 219.508545,13.8696289 C219.50824,14.6307373 218.89148,15.2478027 218.130371,15.2478027 C217.369263,15.2478027 216.752197,14.6307373 216.752197,13.8696289 C216.752197,13.1085205 217.369263,12.4914551 218.130371,12.4914551 Z" id="Instagram"></path>
            </g>
        </g>
    </g>
</svg>