<?xml version="1.0" encoding="UTF-8"?>
<svg width="40px" height="40px" viewBox="0 0 40 40" version="1.1" xmlns="http://www.w3.org/2000/svg" xmlns:xlink="http://www.w3.org/1999/xlink">
    <title>Facebook</title>
    <g id="Facebook" stroke="none" stroke-width="1" fill="none" fill-rule="evenodd">
        <g id="kerFb" transform="translate(-1064.000000, -116.000000)" fill="#000000" fill-rule="nonzero">
            <g id="Icons" transform="translate(1064.000000, 116.000000)">
                <path d="M20.0001193,0 C8.95447252,0 0,8.99190819 0,20.0837331 C0,30.0318042 7.21043559,38.2704736 16.6644995,39.8658353 L16.6644995,24.2737439 L11.8398874,24.2737439 L11.8398874,18.6627855 L16.6644995,18.6627855 L16.6644995,14.5254823 C16.6644995,9.72502231 19.5842703,7.10905073 23.8494068,7.10905073 C25.8921489,7.10905073 27.6476377,7.26190262 28.1572496,7.32922454 L28.1572496,12.3469834 L25.1990671,12.3484209 C22.8800468,12.3484209 22.4329435,13.4548003 22.4329435,15.0789116 L22.4329435,18.6599105 L27.9663837,18.6599105 L27.2446722,24.2708689 L22.4329435,24.2708689 L22.4329435,40 C32.3283847,38.7906013 40,30.34206 40,20.0779832 C40,8.99190819 31.0455275,0 20.0001193,0 Z" id="Facebook"></path>
            </g>
        </g>
    </g>
</svg>