<?xml version="1.0" encoding="UTF-8"?>
<svg width="40px" height="40px" viewBox="0 0 40 40" version="1.1" xmlns="http://www.w3.org/2000/svg" xmlns:xlink="http://www.w3.org/1999/xlink">
    <title>Linkedin</title>
    <g id="Linkedin" stroke="none" stroke-width="1" fill="none" fill-rule="evenodd">
        <g id="kerIn" transform="translate(-1192.000000, -116.000000)" fill="#FFFFFF" fill-rule="nonzero">
            <g id="Icons" transform="translate(1064.000000, 116.000000)">
                <path d="M148,0 C136.955994,0 128,8.95599367 128,20 C128,31.0440063 136.955994,40 148,40 C159.044006,40 168,31.0440063 168,20 C168,8.95599367 159.044006,0 148,0 Z M142.188232,30.234375 L137.317322,30.234375 L137.317322,15.5801391 L142.188232,15.5801391 L142.188232,30.234375 Z M139.75293,13.5791016 L139.721191,13.5791016 C138.08667,13.5791016 137.029541,12.4539184 137.029541,11.0476684 C137.029541,9.60968016 138.119019,8.515625 139.785278,8.515625 C141.451538,8.515625 142.476929,9.60968016 142.508667,11.0476684 C142.508667,12.4539184 141.451538,13.5791016 139.75293,13.5791016 Z M159.751709,30.234375 L154.881409,30.234375 L154.881409,22.3947144 C154.881409,20.4244995 154.176148,19.0808105 152.413757,19.0808105 C151.068237,19.0808105 150.266846,19.9871827 149.914673,20.8621216 C149.785889,21.175232 149.754456,21.612854 149.754456,22.0507812 L149.754456,30.234375 L144.88385,30.234375 C144.88385,30.234375 144.947632,16.9549561 144.88385,15.5801391 L149.754456,15.5801391 L149.754456,17.6550293 C150.401733,16.6564941 151.559875,15.2362061 154.144104,15.2362061 C157.348755,15.2362061 159.751709,17.3306274 159.751709,21.831665 L159.751709,30.234375 Z" id="Linkedin"></path>
            </g>
        </g>
    </g>
</svg>