<?xml version="1.0" encoding="UTF-8"?>
<svg width="40px" height="40px" viewBox="0 0 40 40" version="1.1" xmlns="http://www.w3.org/2000/svg" xmlns:xlink="http://www.w3.org/1999/xlink">
    <title>Twitter</title>
    <g id="Twitter" stroke="none" stroke-width="1" fill="none" fill-rule="evenodd">
        <g id="kerTw" transform="translate(-1128.000000, -116.000000)" fill="#000000" fill-rule="nonzero">
            <g id="Icons" transform="translate(1064.000000, 116.000000)">
                <path d="M84,0 C72.9559937,0 64,8.95599367 64,20 C64,31.0440063 72.9559937,40 84,40 C95.0440063,40 104,31.0440063 104,20 C104,8.95599367 95.0440063,0 84,0 Z M93.1317749,15.593872 C93.140625,15.7907105 93.1448975,15.9884644 93.1448975,16.1871337 C93.1448975,22.2531128 88.5275879,29.2480469 80.0836792,29.248352 L80.0839844,29.248352 L80.0836792,29.248352 C77.4912109,29.248352 75.0787964,28.4884644 73.0472412,27.1862793 C73.4064331,27.2286987 73.7720337,27.2497559 74.1422119,27.2497559 C76.2930908,27.2497559 78.2724609,26.5161133 79.843811,25.284729 C77.8342285,25.2474976 76.1398926,23.9202881 75.5551758,22.0962524 C75.835022,22.1499634 76.1228027,22.1792602 76.4179077,22.1792602 C76.8369141,22.1792602 77.2427978,22.1228027 77.62854,22.0175171 C75.5280152,21.5969848 73.9456787,19.7406006 73.9456787,17.5177002 C73.9456787,17.4969483 73.9456787,17.4783325 73.9462891,17.4591064 C74.5648804,17.8030395 75.2722778,18.0099487 76.0254516,18.0331421 C74.7928467,17.2106934 73.982605,15.8047485 73.982605,14.2120361 C73.982605,13.3709717 74.2099609,12.5830078 74.604248,11.904602 C76.868042,14.682312 80.2512207,16.5090942 84.0665283,16.7010498 C83.987793,16.3647461 83.9472046,16.0144043 83.9472046,15.6542969 C83.9472046,13.1201172 86.0031738,11.064148 88.5382691,11.064148 C89.8587647,11.064148 91.0513916,11.6223145 91.8890991,12.5146484 C92.9349366,12.3083496 93.9169922,11.9262695 94.8041382,11.4004516 C94.4608155,12.4719238 93.7332764,13.3709717 92.7854004,13.9395141 C93.7140503,13.8284302 94.5990601,13.5821533 95.4215088,13.2165527 C94.8071899,14.137268 94.0280762,14.9459839 93.1317749,15.593872 Z" id="Twitter"></path>
            </g>
        </g>
    </g>
</svg>